<?xml version="1.0" encoding="utf-8"?>
<!-- Generator: Adobe Illustrator 16.0.4, SVG Export Plug-In . SVG Version: 6.00 Build 0)  -->
<!DOCTYPE svg PUBLIC "-//W3C//DTD SVG 1.1//EN" "http://www.w3.org/Graphics/SVG/1.1/DTD/svg11.dtd">
<svg version="1.1" id="Layer_1" xmlns="http://www.w3.org/2000/svg" xmlns:xlink="http://www.w3.org/1999/xlink" x="0px" y="0px"
	 width="400px" height="400px" viewBox="0 0 400 400" enable-background="new 0 0 400 400" xml:space="preserve">
<metadata><?xpacket begin="﻿" id="W5M0MpCehiHzreSzNTczkc9d"?>
<x:xmpmeta xmlns:x="adobe:ns:meta/" x:xmptk="Adobe XMP Core 5.3-c011 66.145661, 2012/02/06-14:56:27        ">
   <rdf:RDF xmlns:rdf="http://www.w3.org/1999/02/22-rdf-syntax-ns#">
      <rdf:Description rdf:about=""
            xmlns:dc="http://purl.org/dc/elements/1.1/">
         <dc:format>image/svg+xml</dc:format>
         <dc:title>
            <rdf:Alt>
               <rdf:li xml:lang="x-default">Web</rdf:li>
            </rdf:Alt>
         </dc:title>
      </rdf:Description>
      <rdf:Description rdf:about=""
            xmlns:xmp="http://ns.adobe.com/xap/1.0/"
            xmlns:xmpGImg="http://ns.adobe.com/xap/1.0/g/img/">
         <xmp:CreatorTool>Adobe Illustrator CS6 (Macintosh)</xmp:CreatorTool>
         <xmp:CreateDate>2019-01-23T13:40:02Z</xmp:CreateDate>
         <xmp:ModifyDate>2019-01-23T13:40:02Z</xmp:ModifyDate>
         <xmp:MetadataDate>2019-01-23T13:40:02Z</xmp:MetadataDate>
         <xmp:Thumbnails>
            <rdf:Alt>
               <rdf:li rdf:parseType="Resource">
                  <xmpGImg:width>256</xmpGImg:width>
                  <xmpGImg:height>256</xmpGImg:height>
                  <xmpGImg:format>JPEG</xmpGImg:format>
                  <xmpGImg:image>/9j/4AAQSkZJRgABAgEASABIAAD/7QAsUGhvdG9zaG9wIDMuMAA4QklNA+0AAAAAABAASAAAAAEA&#xA;AQBIAAAAAQAB/+4ADkFkb2JlAGTAAAAAAf/bAIQABgQEBAUEBgUFBgkGBQYJCwgGBggLDAoKCwoK&#xA;DBAMDAwMDAwQDA4PEA8ODBMTFBQTExwbGxscHx8fHx8fHx8fHwEHBwcNDA0YEBAYGhURFRofHx8f&#xA;Hx8fHx8fHx8fHx8fHx8fHx8fHx8fHx8fHx8fHx8fHx8fHx8fHx8fHx8fHx8f/8AAEQgBAAEAAwER&#xA;AAIRAQMRAf/EAaIAAAAHAQEBAQEAAAAAAAAAAAQFAwIGAQAHCAkKCwEAAgIDAQEBAQEAAAAAAAAA&#xA;AQACAwQFBgcICQoLEAACAQMDAgQCBgcDBAIGAnMBAgMRBAAFIRIxQVEGE2EicYEUMpGhBxWxQiPB&#xA;UtHhMxZi8CRygvElQzRTkqKyY3PCNUQnk6OzNhdUZHTD0uIIJoMJChgZhJRFRqS0VtNVKBry4/PE&#xA;1OT0ZXWFlaW1xdXl9WZ2hpamtsbW5vY3R1dnd4eXp7fH1+f3OEhYaHiImKi4yNjo+Ck5SVlpeYmZ&#xA;qbnJ2en5KjpKWmp6ipqqusra6voRAAICAQIDBQUEBQYECAMDbQEAAhEDBCESMUEFURNhIgZxgZEy&#xA;obHwFMHR4SNCFVJicvEzJDRDghaSUyWiY7LCB3PSNeJEgxdUkwgJChgZJjZFGidkdFU38qOzwygp&#xA;0+PzhJSktMTU5PRldYWVpbXF1eX1RlZmdoaWprbG1ub2R1dnd4eXp7fH1+f3OEhYaHiImKi4yNjo&#xA;+DlJWWl5iZmpucnZ6fkqOkpaanqKmqq6ytrq+v/aAAwDAQACEQMRAD8A9U4q7FXYq7FXYq7FXYq7&#xA;FXYq7FUq8webPLXl22+s65qdtp0RBKfWJFRnp14ITyc+yg4q8m8y/wDOWPkTTy8eiWd1rUq14yU+&#xA;qwH/AGcgaT/klgtNPM9c/wCcsPzCvSy6Xa2OlRH7LLG1xMPm0p9M/wDIvG00wjU/zp/NXUiTc+Zr&#xA;1OXUWzi1HWvS3EWK0xq78xeYLw8rzU7u5Y95p5HPSn7THtilL8CuxVMLTzF5gszys9Tu7Zh3hnkQ&#xA;9KfssO2FWS6Z+dP5q6aQbbzNevx6C5cXQ616XAlxRTN9D/5yw/MKyKrqlrY6rEPtM0bW8x+TRH0x&#xA;/wAi8bWnpnlr/nLHyJqBSPW7O60WVqcpKfWoB/s4wsn/ACSxtFPWfL/mzy15itvrOh6nbajEAC/1&#xA;eRXZK9OaA8kPswGFCa4q7FXYq7FXYq7FXYq7FXYq7FXYq7FXYq7FXYq7FXYq7FWG+fPzb8keSIT+&#xA;l74SX9Kx6ZbUlumqKiqVAQH+ZyBitPnTzx/zlJ521lntvL6JoFgdhIlJbth7ysOKf7BQR/McFsqe&#xA;Q3Fzqur6gZbiWfUNQuWAMkjPNNI52G55MxxSz/yt/wA48fmj5gCS/owaVav0n1JvQ/5JUab/AITF&#xA;FvU9B/5w/wBNQK+v+YJpmP24LCJYgPYSy+rX/gBjSLZ5pX/OOH5R6eFLaQ99KtP3l3cTPWniiskf&#xA;/C4aW2UWX5Zfl1ZKBbeWdLQgU5m0hZ6f67KW7eOKLTJfK/llVCrpFkFAoALeIAAf7HFXN5X8sspV&#xA;tIsipFCDbxEEH/Y4qlt7+WX5dXqkXPlnS3JFOYtIVen+uqhu/jitsX1X/nHD8o9QDFdIexlav7y0&#xA;uJkpXwRmeP8A4XGk2wPXv+cP9NcM+geYJoWH2IL+JZQfYyxelT/gDgpbeWeaf+cePzR8vh5f0YNV&#xA;tU6z6a3r/wDJKizf8Jim2AW9zqukagJbeWfT9QtmIEkbPDNG42O44spxS9e8j/8AOUnnbRmS28wI&#xA;mv2A2Mj0iu1HtKo4v/s1JP8AMMbRT6L8h/m35I87wj9EXwjv6Vk0y5pFdLQVNEqQ4H8yEjCxpmWK&#xA;uxV2KuxV2KuxV2KuxV2KuxV2KuxV2KuxVA63rmkaHps2p6vdx2VhbjlLcTNxUeAHdmPZRue2KvmP&#xA;8zv+co9X1My6Z5LV9MsN1fVHA+tSjxjG4hHvu3+rgtlTxKw0/W9f1VbayguNT1S7Yn04w00zsd2Y&#xA;9SfEk/Til7x5D/5xN1C5WK985331KIgMdLsyrz/KSY8o19wob5jGkW9+8qfl95N8pwCPQNKgs348&#xA;XuQvOdx/lzPykPyrTCxZDirsVdirsVdirsVdirsVdirsVY95r/L7yb5sgMev6VBePx4pcleE6D/I&#xA;mTjIPlWmKvAfPn/OJuoWyy3vky++uxAFhpd4VSf5RzDjG3sGC/M4KZW8Hv8AT9b0DVWtr2C40zVL&#xA;RgfTkDQzIw3Vh0I8QR9GKXtv5Y/85R6vphi0zzor6nYbKmqIB9aiHjINhMPfZv8AWxtFPpzRNc0j&#xA;XNNh1PSLuO9sLgcoriFuSnxB7qw7qdx3wsUdirsVdirsVdirsVdirsVdirsVdirD/wAyfzQ8t+Qd&#xA;J+uao/rXswIsdNjI9adh8/soP2nPT3NBitPjX8wvzM80eetUN5rE/G2jJ+p6dESLeFf8lSd28WO5&#xA;+W2BnTKfyq/5x/8AM3nX0dSv+Wk+XGIYXbr++nX/AJd4z2P87fD4cumKCXt+i+afyt/LjzrZflvo&#xA;mlTJqV48MN5qIRWJlnUNCJpXIeSvIH4RxWu3cBQyH8nvzctPzF0y+m+pjTtR0+UJcWXq+t+7kFY5&#xA;A3GPqVZSKdvfCpD0HFDsVdirsVdirsVdirsVdirsVdirsVdirHfOn5f+VPOWn/UtfsUuOIPoXK/B&#xA;PCT3ilHxL8uh7g4q+Qvzh/Jy7/L2+idb+G+0q9ZhZkuiXQA3pJDWpA6c0+Hx4kgYGQKSfl7+Znmj&#xA;yLqgvNHuK20jA3mnykmCdR/MvZqdGG4+W2KafZX5bfmh5b8/aT9c0t/RvYQBfabIR60DH5faQ/su&#xA;OvsajCwpmGKuxV2KuxV2KuxV2KuxV2KsA/N383dI/L3SEZkF5rd4G/R+n8qVpsZZSN1jU/Sx2Hch&#xA;SA+LfMPmHXvNOuTapqs73upXj0ruep+GONB9lRWiqMDJ9D/kv/zjbFbrB5h88W4kuTSS00OQVSPu&#xA;Guh+03/FfQftVOwaYkvbNd87+VNA0O61i+v410ywkW3uZLes/pysQqxFYQ5DfENqbYUPC/M3/OQH&#xA;kXzDrclrp2nJpl6YXh0rzxdwxNPazUPBhGYpZUiY/CWDcgDXjgTTz/yL+Z3mL8s/OMlrfzx32jSy&#xA;m41WCxW3cXYnhLwzRzlAxH7xZFHIbbbVOKaZn5t/5y51SWZI/KelR21uADJPqQMkrNTcLHE6qoHi&#xA;WNfbG1p7p+Vnm7UPN/kTTPMGoWq2d3eLJ6sUdfTPpytHzQMSwV+FQD+PXCxLK8VdirsVdirsVdir&#xA;sVdirsVdirsVdiryj8/vyku/PWi213o/pjXdL5mGOQ8fXiYVaEOSFVuQqpbavcdcUgvkC30DWrjW&#xA;v0JFZytq/qNB9RK8ZfVSvKPiaHl8JFOuBkq+XvMOveVtch1TSp3stSs3pXcdD8UciH7SmlGU4q+0&#xA;fyh/N7SfzC0l2VBZ65ZgfpDT61AB2EsRP2o2+9TsexJYkPQMUOxV2KuxV2KuxV2KsP8AzQ/MnSfI&#xA;Plt9UvKTXs1Y9NsQaNPNSv0IvV27fMgYqHw95h8w655p16fVdUme81K9felT1NEjjXeir0VRgZvf&#xA;fJ35XXP5Z+Q7v8wNS0g6z5uihWXT9MK8ksQ5AEsi/aLxg8nK7qBQU3bFjbyPSvzN/NK482DUtO1i&#xA;9uNbv5PTWBGLpIZDQRCA1j49lAXbtTFNPdfyt/KmDyx+XPmWH8xZrX9D6gsc99Yh+Zs/qwfkzSxF&#xA;v3u60EdTUDqTTFBLynzNbfkVZeUReeW7XVdVv5b8wLLfT/VzGkacztHHwaN+Q2oH/wAod1K/VPMf&#xA;5dT+UYdd1LyZDH5ivONppVsl3draPbWkSwfWXjSRH4oU9MfH8bBt6hsVYsv5kTQ2/o2flzQLZgKC&#xA;f9HR3Mg6d7s3Art3GKXqP5Pf85D+aZvNemaH5ourd9Guz9VSVbeG3MUjDjD/AHIjQJzop+HauKCH&#xA;1NhYuxV2KuxV2KuxV2KuxV2KuxV2KuxV2KsC8y/k95d1nzzo/nOJ2sdW0yeOa59JFK3YiIKCTpRl&#xA;pTn1pt4UU2w38+PyHtvMltP5l8tQLF5iiUyXdpGKLeqNyQB/u7wP7XQ70OBQXy75e8w655W16DVd&#xA;Lmez1KyfatR0NHjkXaqt0ZTiyfcP5X/mTpPn7y2mqWdIb2GkepWJNWgmpX6Ubqjd/mCMLAswxV2K&#xA;uxV2KuxVA65rem6HpF3q+pzC3sLKNpriVuyr2A7sx2Udztir4T/Mz8wtU89eaLjWLwtHbCsWn2ZN&#xA;VggB+FfDkerHufamBmHtn/OO35QW2nWSfmB5pRYisZuNIhn+FYYVHI3kleh47pXoPi8KLElIfPH/&#xA;ADlT5pl1+VPKIhtdFt24QyTwiSW44nd25H4Fb9lRvTqewbTSOtv+cgvLl35B165/Rdrovn9rcww3&#xA;NnCsf1g3DCJpopQOavGHLlWY9KgnsrSRW/5d+f2/JKzv/K00l9Ya4Z7vzJpqhGkcRSqsHpKVLvw9&#xA;EseLcqnocVQX5fWvkmKbSvI/n+31C01SPWFvLWOEQrEr3aQRiC/EtXUH0FqqrUBtyD0Va/5yc8vy&#xA;aX+YQuDdW7299bRtZafACjWlvCqxKjJTiqu6sy8TvvsMSoeRYEuBINR1xV6/+WP/ADkZ5o8sXrxe&#xA;YZbjX9InCKVmmLTwcDTnCz8uXwndDSu247lBD618t+Y9J8yaHaa3pE3r6deqWglIKn4WKMCp3BVl&#xA;IOFimWKuxV2KuxV2KuxV2KuxV2KuxV2KuxV2KvnX/nJL8l1uIrjzx5egpcxgya5aRj+8QdbpQP2l&#xA;/wB2eI+LqDUFILw/8s/zC1TyL5ot9Ysy0lsaRahZg0WeAn4l8OQ6qex9q4si+7ND1vTdc0i01fTJ&#xA;hcWF7Gs1vKvdW7EdmU7MOx2wsEdirsVdirsVfKv/ADlH+Zx1PV18l6ZL/oGmOH1R1O0t1TaM+0IO&#xA;/wDlH/JwFkGMf84//lV/jXzN9e1KIt5c0llkuwR8M83WO39wftP/AJO23IYqS+nvzf0nzLqn5c6r&#xA;pHli2+sanfIlskKyRwj0WdfWHKRkShiDLSvfCgPkP8yPyn1vyFLYRand2s73tuJmWGVeccgJDx+m&#xA;T6jAbUcLxP0YE2wjAl9D/kX5/wBc8p/lf5h1/Vma88taTJHbaNp/JULXczl5UR+JYKTMrNWtNyB1&#xA;woLxjzP5jh1Pzpe+ZLNJF+uXh1D0J6Vjkkf1Wi5IfiRGPFW+Ekb0GKXs/mj81vJPnryV5j17UfLk&#xA;NrrWli3stHvplS4d5Lrm0abgbr6Ur0aqge/VRSWf84z6Po3mnXdXtNf0nT9QtbW1WWL1bWIOsjSB&#xA;duCqCKV64hSx3/nIiLykPzBuv8PvDCbVIrO+sIYWiVJ4F4EpRRHxChVNO4xUPLcCX1x/zjT5/wDJ&#xA;0/lWy8nW1zLDrdoJJWt7oKvrGRjLIbdlNGVSx+E/FTenfCGJe3YUOxV2KuxV2KuxV2KuxV2KuxV2&#xA;KuxV2KtMqspVgCpFCDuCDir4v/5yA/Kr/BXmb69psRXy5qzNJaAD4YJuslv7AfaT/J234nAyBZP/&#xA;AM4ufmcdM1dvJepy/wCgam5fS3Y7RXVN4x7TAbf5Q/ysQpfVWFi7FXYqw382/PkPkjyRfavUfX5B&#xA;9W0yM0PK6lB4Gh6hAC7ewxUPhrT7DVdf1uCytla71TU7gRx1NWeaZurMfEmpJ+eBm+wtV1ny5+Rn&#xA;5Y2NnHGLy9H7uCAERtd3bDlNMxoxVB40NBxXwwsebxfzD/zlb+Yeo25g0uC00bl1uIkM03yBmLRi&#xA;v+pX3wWmmJaj5707zjDeXPn0zS65FbJDpWsWEKiYlHLcLiH1ILdo6M26qH9zirDtUj0tL1xpc009&#xA;iQpie4jWKXcDkHVWkXZq9GO33YpTvzF+YfmHXdFtNEuBa2mk2chnSxsLaK0haYrxMsiQqqs9K707&#xA;nFWM4FVVurlbZ7VZWFtK6SyQgng0kYZUYr0JUSMAfc4q+qv+cW/y3/ROiN5zu5G+uazE0NpbjZEt&#xA;RIDzbfdpGjBHgPnhDEoH86n/ACm8tLqvmHR4tPvfPt5L6XD6x67W00lfUuvq3NlSRONQeOzUOKh8&#xA;vYGSe6poGr6FrVlDZzNPNdx291pN5Z8gZluADGYivxcw9UIG4cEYVfenlOy1Ox8r6TZ6rO91qcFp&#xA;Al9cSMXd5xGPUYsd2+Ou+FgmuKuxV2KuxV2KuxV5Pef85K/l5YeaNV0PUDcWyaZI0H18RmWOWaNu&#xA;EqKsfJxxYGjEUNPlVtNInRv+cjPyz1jzJa6FZ3NwHvCEgvpofStjK2yxEuwkDMdhVKV74rT0/FDs&#xA;VdiqG1O4ubbTbu4tYTc3MMMkkFuOskiKSqD/AFiKYq+Fdc/OP8y9bSSO+1+5EMky3HpQMIFV0rxC&#xA;ekEIUV+zWlaHqK4GVPXPy789wfmv5T1L8vfO97GdclUPoeoOqo8jopKn4QqmSJlqehdSR4nFXz/q&#xA;Fhquga3PZXKtaapplwY5KGjJNC3VWHgRUEfPFL7l/KTz5D538kWOr1H1+MfVtTjFBxuogOZoOgcE&#xA;OvscLAsyxV2KvkL/AJyj88NrPnZPL9vJWw0BeDgdGu5QGlPvwXinsQ2Asg8esNQv9Oulu7C5ltLq&#xA;MMI7iB2jkUOpVuLqQwqpINO2KVBmZmLMSWJqSdyScCtYq7FXYq7FV8UUs0qQwo0ksjBI40BZmZjQ&#xA;KoG5JOKsz1/8m/zG0SHT5LrRLqZ9Qi9VYrWKS4aI8iBHN6asFkI+LjXofGoBRb6C/wCcel/Mi00q&#xA;+8o+a9MvLHTYLVZdJv5UMbRrP1gWT+ZefIL9pNwewCgpI3/OH+mLZXh/xFPcXxjc2H7lIYhL1T1t&#xA;5mZex40xpbfN2q6RqWkalcaZqVu9pfWrmOeCUcWVh8+3cHoRiyfQf/OKUnmKDWdW0XUYZV0uG1jv&#xA;reG4jPGOaV1CSRFhsJUqars1Ae2IQX0vhYuxV2KuxV2KuxV2Kvl3/nI78oPNE/mmXzVoVlLqOnXk&#xA;SfWre2QvJbyRJwakS1PBgvOoH2i1fcMgXnP5dfk15485ahF9UtZNP01HH1jVrhWjjj4nf060aRx2&#xA;Ve/UjritvuaJCkSIzFyqhS7dSQKVPzwsV2KuxVJPPGtx6F5O1rV3bh9Ss55UPSsgQ+mo92egGKvz&#xA;0yLNWs7y6sruC8tJWguraRZYJkNGSRCGVlPiCK4qyn8yfOtj5y1Ky1z6l9U1uS1SLXWSghmuIiUW&#xA;aMVJHKMLUHpT6cKGdf8AOLnnhtG87P5fuJKWGvrwQHot3EC0R9ua8k9yVxCl9e4WKVebPMFt5d8t&#xA;anrlzQxadbSXHAmnNkUlEr4u1FHzxV+et/fXV/fXF9duZbq7leeeQ9WkkYszfSTgZqGBXYq7FXYq&#xA;7FXYq+lf+ca/yc0y40+189a3FI92LgyaLbluMYSL4ROy0qW9QHjvTau9cIYkvpHChJ/Oc00Hk/XZ&#xA;4HaKaLT7p4pEJVlZYHKspHQg4q+D4/PvnmORZI/MWpq6EFWF5PUEf7PAzfQ35c+YfJv526e2h+dd&#xA;Jjl8z6VbhxfxFo5JoQwRpUePiUIZ15oSVJNQOwWPJ7D5TTyjokKeTNFvYmn0aFeenNOJbmONzzDO&#xA;rEvQ+oPYVHthQyHFXYq7FXYq7FXYq7FXYq7FXYq7FXYq+Uf+cmPzauNW1WfyRphMWl6bMBqcnQ3F&#xA;wlDwp/JE33tv2GAsgHg+BLsVdiqvYX11YX1vfWjmK6tJUngkHVZI2DK30EYVfoV5T8wW3mLy1pmu&#xA;W1BFqNtHccAa8GdQXSvijVU/LCweTf8AOWPmU6f5Es9EjfjLrV0PUWvWC1pI/wDyUaLAUh8j4GTs&#xA;VdirsVdirsVdir7r/JPzlpHmj8v9Pl023a0XS0j024tm40WW3hj5cOJaqEMOJND7ZJiWd4oYh+bz&#xA;62n5Z+YzoiCTUPqTgKRX9yaC44juwg58femKh8EZFmzv8ofzOj/LzXrjVTpY1JrqD6q49UxMkRYO&#xA;/H4XFSyJ1Hb3woIa0b81tYs/zUHnyUcZri6Ml/bRfZa2kIWSBeXhHste4BxWn3NZXlve2cF5bOJL&#xA;a5jSaCQdGSRQytv4g4WKtirsVdirsVdirsVdirsVdirANX/PX8tNL1/9AXGpO2qJc/U7iJLeYrFL&#xA;yC/G7IqUqeqk4ppn+KHxB/zkJoQ0f819ZVWLRX7JfpXqPrChnH/IzlT2wMg84wJdirsVdir64/5x&#xA;O8ynUPIl5okj8pdFuj6a16QXVZE/5KLLhDEvM/8AnLDXDe/mFa6WrVi0qxjVl8JrhjKx+mP08SkP&#xA;KvKPl+TzF5o0rQkk9E6ldRWxmpy4LIwDPx78VqcUvTPz6/JjR/INnot9o1xNNa3Qa1uxcEM5nQFx&#xA;IGUBQHU04024964oBeOYEuxV2KuxV2Ksj8m/mF5v8m3b3Hl7UXtBKR9YtyBJBLTpzicMpPgaVHY4&#xA;VfQnkr/nLLQLm0EPm+zewvkoDc2aGW3k8TwJMkZ9vi+eNsaemecPzV8oeXfJsPmW4uPrNlqUXLSY&#xA;kRybpnjLogBX4Aw6l6U+e2FafBh6+GRZOxV2KvqL8of+cktA/Qmn6B5qBsr+2MNja3cSEwSRACON&#xA;5d/3ZWnxnp39gbYkPoTCh2KuxV2KuxV2KuxV2KuxV8gf85G+W9AbzJL5s8r6jZ6hbXTKutQ2M8cz&#xA;Wt2PhEkgiZuCzce/7YPc4GQfR/5Q+YBr/wCW+gag1015cfVI4LueQkyGeAenLzLbluS7k9euFBSb&#xA;89rbQrDyVfebbnRNP1bV9ISKOyOoQieMC4uY4iGWo5BfULAHauKh8W6pd295fzXUFuLVJiHaBTVV&#xA;cgGThsKIXqVX9kUFTSuBkhMCuxV2KvbP+cT9cNl+YV1pbNSLVbGRVXxmt2Eqn6I/UwhBYR+dOpnU&#xA;vzV8zXJPLhevbA79LUC3HX/jFioe9fkD+UPlo+XvLPne7ic61HHcSRoDxiJaeRY5XFKsyxU49vwx&#xA;QS9P/MfyDpnnryzJoeoSPCvqJcQTx8eaSx1AI5BhuGKnbocKHwLcW89tPJbzo0U8LFJY2FGVlNCC&#xA;PY5Fmp4q7FXYq7FXYq7FXrf5gebfK3mL8nPJ9pZX4TWvLxWzvNLkVlkKtFxMqGnFlBhHQ/tb0O2F&#xA;DyTAl2KuxV2KvuL/AJx+1rU9Y/KrSLvUrh7q7U3ELXErF5HWKd1TkzVJIWg+jJMS9ExQ7FXYq7FX&#xA;Yq7FXYqxn8zb66sPy88yXlpM1vdQadcvDPHs6OImoVPY+/bFQ+NfIYW18s+ddRvrJ7nSZNJGno1e&#xA;KC/nu7d7U17tH6TS08Fp3wMmdf8AOMv5oXGieYE8oXvKXSdZm/0QjcwXbAAH/UkA4t4Gh8cQpDOf&#xA;+cmfzV0a00q68hQW4vr2+jR9Qk9QqtrxdJoRRQeTkoG41FBTrXEoAfK2Bk7FXYq7FWa/ktqZ0381&#xA;fLNyDx53qWxO/S6Btz0/4y4UFjXmK7N55g1O8bdrm7nmPTq8jN2274pfeH5Y2Qsvy58sWwFCml2h&#xA;cbfbeFWfp/lMcLAsmxV8Qf8AOQ2mT2H5ua56kPpR3bQ3MBAorpJClXHj+8DBv8oHAyDzjAl2KuxV&#xA;2KuxV2KuxV2KoiygtppWFzci2iRS5cqzs1KfAirsWPbkVHiRirJfLv5b+ZPNsNzP5SsZ9Sjsmjju&#xA;ufpQkNKGKleUnE14GoB+HbrXCrO/ze/LvyX+W3ly2061MuoeZtcCtJNdmNhaW8JDSGFUVQrSSUXk&#xA;SfhDAe6gMw/5xj/NWJxY/l7LYJAI4rmaC/EpLSyeoZmUxsP5WP2W7dMQgh9HYUOxV2KuxV2KuxV2&#xA;KqdzbW91BJb3MST28qlJYZFDoynYqytUEHFXnv5t/llqHmryZbeWfLTWOk2wvI57pXQxx+iivURr&#xA;EjfFzKnoK+PipBeEaJ5o/J/8s5HudD9bzj5rSFvq+rvGbeyt5zyTjHHJR9upcBqj7LCpwJePahqF&#xA;5qN/cX97K095dyNNcTOas8jnkzH5k4pQ+BXYq7FXYqmHl27Nn5g0y8XZra7gmHTqkit327YVS/Ar&#xA;9E/K6qvlnSFUAKLK3AA2AAiXJMEzxV89/wDOYGn2raF5f1H4RdR3UtuNhzaOSPmd+tFMf44CkPl3&#xA;AydirsVdirsVdirsVdirsVZP5L/MHzn5Jv5JNBvHtWlZVurN1DxSlCQFkicHcVIqKMOxwq+nvy68&#xA;v335i6NJ5g/M/wAu2cl27LHpBktzDKLVQW3BPPgXdivI79elDixXP/zjP5Lg836d5h0a6udKjsbi&#xA;O6bToj6kbPE4cBHcl4wSPi3O3SmNLb1/Ch2KuxV2KuxV2KuxV2KuxV8gf85K/llonlHWtN1LQoBa&#xA;adq6yiSzQnhHPCVLFAT8Kusg+HsQe22AsgXjGBLsVdirsVdirsVdir9E/K7K3lnSGUgqbK3II3BB&#xA;iXJMEzxV88f85htJ+ifLKgn0zcXRYduQSPj+s4CkPmDAydirsVdirsVdirsVdir6u/5x0/KPQoPK&#xA;y+YPMOi+prV3IwhTUYQwigQjg8UUi/CX686V8NupYkvR/K35SeRfLOs3et6bYctVu3eRru4YzOhk&#xA;JZhFy2Steo398KLZjirsVdirsVdirsVdirsVdirsVfJv58fmj+Y2kfmfqOm2Grz6bY2KwraQWzcE&#xA;ZJIVkLuOjsWc9cDIB5P5n87ebPNMkEnmDU59Ra2UrbiUjigNOXFVAUFuIqaVPfFKR4FdirsVdirs&#xA;VdiqYeYrQ2fmDU7NtmtrueE9OqSMvbbthV94fljei9/Lnyxcg1L6XaBzt9tIVV+n+UpwsCybFXlv&#xA;/OR3kq48zfl1PLZRmTUNGkF/CiirPGilZ0H+wbnTuVpiUh8V5Fk7FXYq7FXYq7FXYq9+/wCcUPIl&#xA;rqWraj5q1C3SeDTONtp4kUMouXHN5BX9qNKU/wBbCEF9UYWLsVdirsVdirsVdirsVdirsVdirsVf&#xA;F3/OS1pqi/mtql3c2csFnMtslncOhEcqpbxhij/Zb4qjbp3wFkHlWBLsVdirsVdirsVTDy7aG88w&#xA;aZZru1zdwQjp1eRV77d8Ksl/OnTDpv5q+ZrYjjzvXuQN+l0BcDr/AMZcUB9Sf8436qNQ/KPSELcp&#xA;LF7i0k3r9iZnQf8AIt1whBem4ocQCKHpir43/wCciPyotPJmuwarpIK6LrTyslvSgtp1IZolI24M&#xA;Gqg7UI7YGQLyHAl2KuxV2KuxVNfLXljXPM2rw6Roto93fTn4UQbKvd3Y7Io7scKvuL8qfIUfkbyX&#xA;aaF6iz3YZri/nQEK9xLTlxrvxUAID3AwsCy/FXYq7FXYq7FXYq7FXYq7FXYq7FXYq+Zv+cnPzX0X&#xA;ULebyJp9v9YurO6SS/vnA4RSRKf3cO9S/wAfF27bjeuwLIB85YEuxV2KuxV2KuxVmv5LaYdS/NXy&#xA;zbAcuF6lyRv0tQbg9P8AjFhQWb/85YaGbL8wrXVFWkWq2MbM3jNbsYmH0R+niVDMP+cP9eD6f5g0&#xA;B23hliv4F8RKvpSn6PST78QgvorCh2KsE/OryI3nPyBfadbpz1O1pe6YB1aeEH4P+eiMyfM1xSHw&#xA;zNEyE/AycTwdX6hwPiB6U3yLJSxVNfLPljXPM+swaPolq13f3FeMa0AVRuzuxoqqvcnCr0iX/nF7&#xA;80IdXtLJ4bWWzuHVZtTt5g8MIP2mdJPSlPEeCY0i0x84f84teZNA8t3etW2rW+omwha4urRYnif0&#xA;4xycxsS4YqKmhp08dsaW3oX/ADiRdaFJ5O1O2t4kTWYLzlfyUHqPFIg9A168RxcAeIJ74hBe7YUO&#xA;xV2KuxV2KuxV2KuxV2KuxV2KuxVi/wCYX5jeW/IuinUtZlJkkqtlZR0M08gFeKDsB+0x2HzoCq+C&#xA;tSv59R1G61C4PK4vJpLiZutXlYux39zgZobArsVdirsVdirsVe2f84n6Gb38wrrVGWsWlWMjK3hN&#xA;cMIlH0x+phCC9M/5yx8tHUPIlnrcacpdFuh6jU6QXVI3/wCSixYlAeI/848eaBoH5o6Z6j8LXVeW&#xA;m3Hh+/p6X/JZUxSX25hYuxV2Kvnj8zv+ccdV1vz7+kvL7xQaNrbmTVwzKv1a4CkmdY9i4dt6LvyL&#xA;dFOBIL5w8waDqega1eaNqkXo39jKYZ06io6Mp7qwoynuN8WT13/nEgqPzJ1AEgE6POFr3P1m2O30&#xA;YhBfXOFigNc1XQ9L02W51u7t7PTiPTllu3SOI8xTgS5APLw74q8Y/I7yJougfmBrmqeX/M2matoN&#xA;3byQ2dhaXHq3UYadJI/WSnSNFK8q717YEl7thQ7FXYq7FXYq7FXYq7FXYq7FXYqhdW1Sy0nS7vU7&#xA;5/Ts7GGS4uJOtI4lLMafIYq+CPzD89ar5280XWt6gxCyEpZ21arBbqT6ca/Ibse7VOBmxrArsVdi&#xA;rsVdirsVdir64/5xO8tHT/Il5rcicZdauj6bU6wWtY0/5KNLhDEvWfNnl+28xeWtT0O5oItRtpLf&#xA;mRXgzqQj08UajD5YUPz5ubfUNI1WW3lDW2oafO0cgBo8c0L0O47qy4Gb76/L3zZB5s8maVr8RHO8&#xA;gBuUXok6fBMlPaRTT2wsGQ4q7FXYq8C/5yL/ACT1TzFcjzb5biNzqSRLFqOnIP3kyRj4JYv5nVfh&#xA;K9wBTfqEgvnXyj5m1jyX5ss9ZtUaK90+X99bSApzQ/DLDIDuOSkj269cWT2X80P+cn4tb8uppnk6&#xA;O/0q8ndWvL+UpDLGiENwgaGR2+Jhu1R8O1N9m0AM4/KbQz+ZH5QxJ58uJ9Zjn1CSe3eSVlkVYAIU&#xA;HOMqxowc/F44oKF81/8AOKvlqWH615Pvp9F1WH4oFlkaWBnXcfH/AHsZr+0GNP5caW0J5T/MP80f&#xA;y+stQT807OabRrG3U6ffD05ria5eREjt0nR/TkqnOQ8zzAXc9sVZV5C/5yL8m+cfMUOgW9peWN7d&#xA;BvqrXKxmN2RS7JyR2IbipIqKYVp6rih2KuxV2KuxV2KuxV2KuxVgn56K7flL5lCPwP1UEn2EqFh9&#xA;I2xSHwpkWTsVdirsVdirsVdiqIsLG61C/trC0jMt3dypBbxDq0kjBEUfNjhV+hPlPy/beXfLWmaH&#xA;bUMWnW0dvzApzZFAd6eLtVj88LBNcVfIf/OUnkdtG86p5htoyNP19echA+FbuIBZV2/nXi/uS3hg&#xA;LIJ3/wA4n+fha6leeS72SkN9yvNL5HpOi/vox/rxryH+qfHEKX1DhYuxV2KuxVjfmz8t/I3m3ifM&#xA;GjwXsqU43HxxTADt60LRycfblTFXhv5m/wDOK8vrHUPIRX0WBMmjXEhqpA/3RNITy5fyyH/ZdsFM&#xA;gXlun+ePzb/LW5GiLdXWk+gfU/Rd1GrxUkJJKpKrLxc13T78VfZ3knXZ9f8AKGja3cRrFcajZw3E&#xA;0aV4B5EBYLWppXphYorW/Luga9ai01rTrbUrZSWSK6iSUKxBXknMHi1CfiG+KpP5U8h/l3oxF95b&#xA;0mxik3VL2BVlkFPhYLMS7DwIDYqyjFXYq7FXYq7FXYq7FXYq7FXjf/OVtzdw/lfHHBy9K51K3iuu&#xA;NaemElkHOnb1I0696YCkPj3AydirsVdirsVdirsVe1f84t+R21nzq/mG5jJ0/QF5xkj4Wu5QViXf&#xA;+ReT+xC+OEIL68wsXYqw382/IcPnbyRfaRxH19B9Z0yQ7cbqIHhv2DglD7HFQ+GtPvtV0HW4L22Z&#xA;rTU9NnDoSKNHNC3RgfAihBwM33r+X/nTTvOflSx16yov1heN1ADUw3CbSxH/AFT08RQ98LBkWKux&#xA;V2KuxV2KvPfzk/KSx/MLRI40kW01yxq2nXrCq0b7UMtN+DU+ancdwVILyDSPPP8AzkV5F06Pyx/h&#xA;I6ja6QPSiuzYXdyvoruoWe1dImVV6GlR33wJYj+YX/ORfnfzSUt9OlfQNN9JUntrSQ85ZCPjZpgq&#xA;ScTWgUbU61xWmFeUPzB84eULkz+X9Tls1YhpbeoeCSn88T8kPhWlfA4pejt/zll+ZpKEWulLxADA&#xA;QTfFTu1Zz19qY2inu/5Z/nn5Q88+nZRO2n67wBk064ovNgKuYHBIkUHts1N6YUEPRsUOxV2KuxV2&#xA;KuxV2KoTV9I0zWdMudL1O3W6sLtDFcW714sp+VCD3BG4O4xV8Rfm5+VOs+RvMF0PqsreXZpm/Reo&#xA;fbQxt8Sxu4G0ijYhqVpUbYGQLEdJ8va/rDSLpGmXeotFQyi0gknK12HL01alcUvTdB/5xf8AzM1P&#xA;TZL25jttLcIXt7O6kPryNSqrxjDqlf8ALYEeGNIt555u8oa55S1htH1uNIdQREkeKORJeKyCq1MZ&#xA;YAkb0xSkuBXYqqQQTXE8cECNJNKwSKNRVmZjRVAHUk4q+8Pyk8hw+SfJFjpHEfX3H1nU5BvyupQO&#xA;e/cIAEHsMkwLMsVdirsVfKv/ADlF+WJ0zV186aZFSw1NxHqiKNo7qm0u37MwG/8AlD/KwFkCxj/n&#xA;H/8ANX/BXmb6jqUpXy5qzLHdkn4YJukdx7AfZf8Ayd9+IxUh9oKysoZSCpFQRuCDhYt4q7FXYq7F&#xA;XYqlnmbzJpPlrQrzW9WmENjZIXkbux6KiDuztRVHjir8+tcv4NR1rUNQt7dbSC8uZp4bVPsxJLIX&#xA;WNfZAaYGaBwK7FVS3uJ7eeO4t5GhnhYPFLGxV0ZTVWVhQgg9CMVZ75e/Pr81NEuI5U1ya/iUjnba&#xA;gfrSOBT4Sz1kFadVYH3wop9eflp57s/PHlG01+3j9CSQtFd2teXpTx7Ole43DL7EYWJZTirsVdir&#xA;sVdirsVUrq1tbu3e3uoUuLeUUkhlUOjDwZWBBxVS03StL0u0Wz0yzgsbRCSlvbRpDGCetEQKuKor&#xA;FXwz+fOlalp35ra+L8lmup/rVvJWvKCUAx0r/IPg+jAyDz/Al2KvfP8AnFz8sTqert501OL/AEDT&#xA;HKaWjDaW6pvIPaEHb/KP+ThCC+qsLF2KuxV2KoLXNF03XNIu9I1OET2F9E0NxEe6sOoPZh1B7HfF&#xA;Xwn+Zv5ean5E80z6Pd1ktWrLp15Sgntyfhb2YdHHY+1MDMPbv+cbfzoWeK38j+YZ6TxgR6FeSH7a&#xA;jpaux/aH+6/EfD141QxIfReFDsVdirsVdiryP/nKMSH8qZ+MbOPrltzZRUIKn4m8BWg+ZGApD41w&#xA;MnYq7FXYq7FWUeUPzN88+T43h8varJZ28snqy23COWJnIClikqutSqgVG+Faeu+WP+cu9Zt4fR8y&#xA;aNFfuKBbqzc27Ed+cbCRSf8AVK42inpXk/8A5yV/LfzBItveTyaFdsaKl+FWFvlOpZB/s+OG0U9V&#xA;ilimiSaF1kikUPHIhDKysKhlI2IIxQuxV2KuxV2KuxVp3REZ3YKigszMaAAbkknFXwr+dfni185f&#xA;mDfarY76dCqWli56vFDUep/s3LMPYjAyDBMCWWfll+Xup+e/NMGj2gaO1Wkuo3gFRBbggM2+xY9F&#xA;Hc+1cKl926Houm6HpFppGmQiCwsYlht4h2VR1J7sepPc74WCNxV2KuxV2KuxViH5oflvpPn3y1Jp&#xA;d3SG9irJpt9SrQTU+8o1KOvce4GKh8PeYvL2ueVteuNJ1SJrTUrKTelRWhqkkbbVVuqsMDN9QfkN&#xA;+fNt5itrfyz5muBH5ijAjtLuQ0W9UdAT0EwGxB+11G9RixIe4YUOxV2KuxVDanplhqmnXOnahCtx&#xA;ZXcbQ3EDiqsjihBxV8Ofm9+WF/5A8zvZHlLpF3yl0m8b9uIHeNj09SOoDfQe+BkCwXAl2KuxV2Ku&#xA;xV2Kpz5R8oa95t1uHRtEtzcXk25J2jjQfakkb9lF8foG9BhV99+WdI/QvlvStG5+p+jbO3s/U/m9&#xA;CJY+X08cLBMsVdirsVdirsVYD+e+tzaP+U/mC5gbhPNClohFa0upVhehHT927YpD4XyLJNPLPlrW&#xA;PMut2ui6Pbm4vrtgqKK8VH7Tuf2UUbscKvuP8r/y30nyF5aj0u0pNey0k1K+pRp5qfeEWtEXsPcn&#xA;CwLL8VdirsVdirsVdirsVYD+bn5R6R+YOkKjsLTWrQMdP1ALWld/Slpu0bH6Qdx3BUgvi3zD5d17&#xA;ytrkul6tbyWWpWjVpuK0PwyRuPtKaVVhgZPoX8l/+ckop1g8veeLgRzikdnrshor9lS6PZv+LOh/&#xA;a3+ItsSH0UrKyhlIKkVBG4IOFDeKuxV2Ksc8/eRND87+XZtE1ZSEYiS3uUp6sEy/ZkQkHxoR3BIx&#xA;V8k/mp+Q/mXyFb/pM3Eep6G0giF7EDHJGzfZEsRLceXYqxHywMgXmWBLsVdirsVdir7R/wCca/Kg&#xA;0P8ALS0vJrZYb/WXa8mcqBI0JJW3DN14+mOaj/K98kGJeq4odirsVdirsVaZlVSzEBQKknYADFXz&#xA;D/zkX+dfl/XNNl8naCqahCJkkvNVqfSV4WqEt6Ec99i5qtOleoDIB4Z5a8s635l1i30fRbVru+uD&#xA;RUUbKtd3duiovdjil9qflH+Uekfl9pDIjC71q7CnUNQK0rTf0oq7rGp+knc9gCxJZ9ih2KuxV2Ku&#xA;xV2KuxV2KuxViH5kflf5a8+6T9U1SP0r2EH6jqUYHrQMfu5IT9pDsfY74rb41/MP8svNPkTU/qms&#xA;QcrWQn6nqMQJt5wP5W7MO6HcfLfAztlH5U/n/wCZfJPpabfBtW8uKQBZu376Be5t5D0H+Q3w+HGt&#xA;cUEPq/yX+YPlPznp4vdBvkuOIBntWolxCT2liPxD5/ZPYnCxZFirsVdiryv/AJyakRfyi1JWYKXn&#xA;tVQE0LH11ag8dgTiUh8W5Fk7FXYqyHyR5E8x+ddaGkaFAstwFMs0sjcIoowQpeRt9qsOgJ8BhV9B&#xA;+UP+cStN0/UrS/8AMWsDU4oGEk2mQ2/pxOymoVpWdmZPEcBXGmNvoFEREVEUKigKqqKAAbAADChv&#xA;FXYq7FXYqx3zp+YHlTyZp313Xr5bfkCYLVfjuJiO0UQ3b59B3IxV8ofmr/zkB5m86+rptjy0ny4x&#xA;INpG376df+XiQdQf5F+Hx5UrgZAMX/Lz8svNPnvU/qmjwcbWMj65qMoIt4Af5m7seyDc/LfFNvsr&#xA;8t/yv8teQtJ+qaXH6t7MB9e1KQD1p2H38UB+yg2Hud8LC2X4q7FXYq7FXYq7FXYq7FXYq7FXYqgt&#xA;a0PSNc02bTNXtIr6wnFJbeZQynwI8GHYjcdsVfMX5nf84u6vphl1PyWz6nYCrPpchH1qMdf3R2Ey&#xA;+2zf62CmQLxKx1DW9B1Vbmynn03U7RiA6FoZo2GxU9CPAg4pe7eQf+csdTtRHZ+dLP6/CNv0nZqq&#xA;Tj3khJWN/mpX5HG0U9/8p/mH5M82QiTQNVgvHpVravCdfHlC/GQfOlMLFkWKvFv+cr9Rtbf8uLez&#xA;liaSa9v4hbuK8YzEruzE9N1+ED39sBSHyFgZOxVmnkf8n/PvnSNLnRtP/wBxjS+k+pTukUCkGjEc&#xA;jzcL39NWwot9f/lf+V2h/l/ohsrAm4vrni+o6g4o80ijYAfsotTxX76nfCglmeKHYq7FXYqx7zZ+&#xA;YXkzynAZdf1WCzenJLYnnO47cIU5SH50pir5/wDP3/OWGpXQksvJdn9RhNV/Sl4qvOfeOH4o0+bc&#xA;vkMFsqeE32oa3r2qtc3s8+pandsAXctNNIx2CjqT4ADFL238sf8AnF3V9TMWp+dGfTLA0ZNLjI+t&#xA;SDr+9O4hX23b/VxpBL6d0XQ9I0PTYdM0i0isbCAUit4VCqPEnxY9ydz3wsUbirsVdirsVdirsVdi&#xA;rsVdirsVdirsVdirsVYd58/KXyR52ib9M2IW+oBHqdtSK6Wmw+OhDgeDhhitvnTzx/zi3510ZpLn&#xA;y86a9p4qVjSkV2o94mPF/wDYNU/yjBTK3j9xa6ppN+YbmKfT9Qt2BMcivDNGw3GzcWU4pegeWP8A&#xA;nIb80tACRjVP0pap0t9SX6xX/nrVZv8Ah8UUyHz3/wA5F23nXyLeeX9V8uRx6hKY3tbxJi8UcqOC&#xA;ZFRlV1bhyUfEeu+2K08ZtoPrFzFBzSL1XVPUlbii8jTkzdlHc4Evqr8tvJH/ADjzpOmQ/WdX0XX9&#xA;XdAbm4v7iB15UBYR20zcVQV2qvLxOFiXr9lr3k62tYoLLUdOhtEUCGKGaBYwp3HFVIUD5YUKreaf&#xA;LKKXfV7JVUVZjcRAADqSeWKpZe/mf+XNkpNz5n0tSNyi3cLv0r9hGZu3hitMX1X/AJyQ/KPTwwTV&#xA;3vpVrWO0t5n6eDuqRn/gsbTTA9e/5zA09QyaB5fmlJ+zNfyrEB84ovVr/wAGMFrTy3zR/wA5Dfml&#xA;r4eL9JjSrZ+sGmr9X/5K1ab/AIfFNMAt7bVdX1ARW8U+oahcsSI41eaaRzudhyZjil6/5H/5xb86&#xA;6y0dz5hdNB080LRvSW7Ye0Snin+zao/lONIt9F+Q/wApfJHkmJf0NYhr6hEmp3NJbpq7H46AID4I&#xA;FGFjbMcVdirsVdirsVdirsVdirsVdirsVdirsVdirsVdirsVdiqVeYPKnlrzFbfVtc0y31GEfYE8&#xA;auyV7o5+JD7qRirybzJ/zif5E1AvJot5daLK1eMdRdQD/YSESf8AJXBSbeaa3/zid+YNmWbTLyx1&#xA;SIfZUO1vKfmsi8B/yMxpNsH1P8lvzV00kXHli+cj/lmQXQ60625lxW2N3XlzzDZtxu9Lu7dunGWC&#xA;RD0r+0oxSl2BXYqmNr5c8w3jcbTS7u4bpxigkc9K/sqcKsk0z8lvzV1IgW/li+Qn/lpQWo6063Bi&#xA;xRbONE/5xO/MG8Ktqd5Y6XEftKXa4lHyWNeB/wCRmNLb0vy3/wA4n+RNPKSa1eXWtSrTlHUWsB/2&#xA;EZMn/JXGkW9Z8v8AlTy15dtvq2h6Zb6dCftiCNUZ6d3cfE592JwoTXFXYq7FXYq7FXYq7FXYq7FX&#xA;Yq//2Q==</xmpGImg:image>
               </rdf:li>
            </rdf:Alt>
         </xmp:Thumbnails>
      </rdf:Description>
      <rdf:Description rdf:about=""
            xmlns:xmpMM="http://ns.adobe.com/xap/1.0/mm/"
            xmlns:stRef="http://ns.adobe.com/xap/1.0/sType/ResourceRef#"
            xmlns:stEvt="http://ns.adobe.com/xap/1.0/sType/ResourceEvent#">
         <xmpMM:RenditionClass>proof:pdf</xmpMM:RenditionClass>
         <xmpMM:OriginalDocumentID>uuid:65E6390686CF11DBA6E2D887CEACB407</xmpMM:OriginalDocumentID>
         <xmpMM:DocumentID>xmp.did:0280117407206811822AD048AEB43230</xmpMM:DocumentID>
         <xmpMM:InstanceID>xmp.iid:0280117407206811822AD048AEB43230</xmpMM:InstanceID>
         <xmpMM:DerivedFrom rdf:parseType="Resource">
            <stRef:instanceID>xmp.iid:0180117407206811822AD048AEB43230</stRef:instanceID>
            <stRef:documentID>xmp.did:0180117407206811822AD048AEB43230</stRef:documentID>
            <stRef:originalDocumentID>uuid:65E6390686CF11DBA6E2D887CEACB407</stRef:originalDocumentID>
            <stRef:renditionClass>proof:pdf</stRef:renditionClass>
         </xmpMM:DerivedFrom>
         <xmpMM:History>
            <rdf:Seq>
               <rdf:li rdf:parseType="Resource">
                  <stEvt:action>saved</stEvt:action>
                  <stEvt:instanceID>xmp.iid:F77F11740720681183D1EB20DCE892F0</stEvt:instanceID>
                  <stEvt:when>2015-11-17T10:09:59Z</stEvt:when>
                  <stEvt:softwareAgent>Adobe Illustrator CS6 (Macintosh)</stEvt:softwareAgent>
                  <stEvt:changed>/</stEvt:changed>
               </rdf:li>
               <rdf:li rdf:parseType="Resource">
                  <stEvt:action>saved</stEvt:action>
                  <stEvt:instanceID>xmp.iid:0280117407206811822AD048AEB43230</stEvt:instanceID>
                  <stEvt:when>2019-01-23T13:40:02Z</stEvt:when>
                  <stEvt:softwareAgent>Adobe Illustrator CS6 (Macintosh)</stEvt:softwareAgent>
                  <stEvt:changed>/</stEvt:changed>
               </rdf:li>
            </rdf:Seq>
         </xmpMM:History>
      </rdf:Description>
      <rdf:Description rdf:about=""
            xmlns:illustrator="http://ns.adobe.com/illustrator/1.0/">
         <illustrator:StartupProfile>Web</illustrator:StartupProfile>
      </rdf:Description>
      <rdf:Description rdf:about=""
            xmlns:xmpTPg="http://ns.adobe.com/xap/1.0/t/pg/"
            xmlns:stDim="http://ns.adobe.com/xap/1.0/sType/Dimensions#"
            xmlns:xmpG="http://ns.adobe.com/xap/1.0/g/">
         <xmpTPg:NPages>1</xmpTPg:NPages>
         <xmpTPg:HasVisibleTransparency>False</xmpTPg:HasVisibleTransparency>
         <xmpTPg:HasVisibleOverprint>False</xmpTPg:HasVisibleOverprint>
         <xmpTPg:MaxPageSize rdf:parseType="Resource">
            <stDim:w>400.000000</stDim:w>
            <stDim:h>400.000000</stDim:h>
            <stDim:unit>Pixels</stDim:unit>
         </xmpTPg:MaxPageSize>
         <xmpTPg:PlateNames>
            <rdf:Seq>
               <rdf:li>Cyan</rdf:li>
               <rdf:li>Magenta</rdf:li>
               <rdf:li>Yellow</rdf:li>
               <rdf:li>Black</rdf:li>
            </rdf:Seq>
         </xmpTPg:PlateNames>
         <xmpTPg:SwatchGroups>
            <rdf:Seq>
               <rdf:li rdf:parseType="Resource">
                  <xmpG:groupName>Default Swatch Group</xmpG:groupName>
                  <xmpG:groupType>0</xmpG:groupType>
               </rdf:li>
            </rdf:Seq>
         </xmpTPg:SwatchGroups>
      </rdf:Description>
      <rdf:Description rdf:about=""
            xmlns:pdf="http://ns.adobe.com/pdf/1.3/">
         <pdf:Producer>Adobe PDF library 10.01</pdf:Producer>
      </rdf:Description>
   </rdf:RDF>
</x:xmpmeta>
                                                                                                    
                                                                                                    
                                                                                                    
                                                                                                    
                                                                                                    
                                                                                                    
                                                                                                    
                                                                                                    
                                                                                                    
                                                                                                    
                                                                                                    
                                                                                                    
                                                                                                    
                                                                                                    
                                                                                                    
                                                                                                    
                                                                                                    
                                                                                                    
                                                                                                    
                                                                                                    
                           
<?xpacket end="w"?>
	</metadata>
<g>
	<path d="M199.528,22.086c-96.809,0-175.305,78.468-175.305,175.29c0,96.821,78.496,175.305,175.305,175.305
		c96.821,0,175.305-78.483,175.305-175.305C374.832,100.554,296.349,22.086,199.528,22.086z M35.566,197.376
		c0-10.708,1.039-21.169,2.998-31.306c0.315,0.08,0.666,0.158,1.11,0.217l0.763,2.81c1.017-0.255,1.524-0.763,2.3-1.524
		c2.542-2.302,0-8.401,3.813-9.685c0,0,0.253,0,0.508,0l2.047-1.527c1.525,0.777,1.016,0.777,1.765,2.035
		c1.284,1.792,1.284,0.508,1.539,3.317c0.253,2.542,0.762,3.051,1.537,4.841c0.243,1.272,0,1.019,0.243,2.035
		c4.078,1.284,1.791-2.035,3.57,5.858c2.034,1.016,0.508-0.507,1.524,1.779c1.271,2.796-0.253,5.874,1.271,8.415
		c4.335,6.368,2.033,2.796,2.81,6.621c0.253,1.27,0.762,0.763,0.506,2.556c-1.016,9.417-1.792,14.767,2.288,22.406
		c1.539,2.796,3.318,5.858,5.352,7.893c1.779,1.537,1.779,1.779,2.555,4.08c0.508,1.792,1.017,3.317,1.78,5.097
		c0.761,1.524,1.27,2.541,2.033,4.32c0.762,1.537,1.538,2.301,2.555,4.08c0.762,1.538,4.065,7.905,6.113,7.397
		c3.812-2.047,0-5.11-1.272-6.636c-0.776-1.271-1.524-2.288-2.047-3.559c-1.525-3.317,0.255-1.524-2.288-3.062
		c0.255-2.796-1.284-2.796-1.524-4.32c1.018,1.271,2.541,3.812,3.559,5.858c1.524,3.05,9.417,12.976,9.926,14.515
		c0.775,2.032,0.268,1.779,1.537,3.812c1.031,2.047,5.339,5.618,7.639,6.635c1.284,0.762,2.3,1.017,3.558,1.524
		c5.111,2.81,2.57,1.017,7.907,2.033c1.537,0.268,1.779,1.284,2.796,2.033c2.045,1.285,1.284,0.268,2.553,2.302
		c3.064,0.254,1.78,0,4.08,1.27c1.271,0.764,1.793,0.256,3.304,1.271c1.78,1.524,2.556,3.571,4.335,5.352
		c3.303,3.558,3.572,2.809,5.35,4.333c2.555,2.301,3.064,0.508,8.147,1.017c2.301,4.333,3.572,4.589,0.253,8.909
		c-0.494,1.03-2.794,3.316-2.794,3.572c-0.51,0.763,0.253,4.333,0,6.112c-0.763,3.051-0.763,2.541,1.017,4.844l8.667,11.209
		c4.321,5.604,3.304,3.825,9.672,6.876l1.017,0.763c2.047,1.271,2.047,3.572,1.78,6.367c0,1.538,0.268,4.079,0,5.858
		c-0.255,1.272-0.508,1.029-0.749,2.556c0,1.27,0.749,2.033,0.749,3.304c-0.255,2.287-1.524,3.062-1.524,5.097
		c0,4.066,4.335,3.559,1.524,7.892c0.268,0.51,0,0,0.268,0.51c0.044,0.059,0.08,0.098,0.123,0.15
		C90.585,341.298,35.566,275.773,35.566,197.376z M175.106,359.525c0.76-0.29,1.471-0.809,2.121-1.68
		c2.288-3.304,5.859-5.351,9.686-5.859c4.066-0.508,2.541,0,5.083-2.541c2.047-2.033,2.811-1.017,5.604-2.033l4.068-3.572
		c5.618-4.83,2.808-5.351,7.396-7.892c1.525-0.764,3.559-1.779,5.859-1.779c3.304-0.268,3.304-0.776,5.082-2.81
		c3.064-3.318,4.082-5.351,4.855-10.192c0.256-2.288,2.034-2.796,3.56-4.335c0.761-0.508,1.017-1.257,1.78-1.765
		c0.775-0.522,1.778-1.031,2.3-1.793c1.016-1.526,1.271-4.335,1.016-6.623c-2.032-1.016-4.335-1.779-6.621-2.796
		c-6.112-3.062-7.892-0.507-11.717-2.809c-2.796-1.524-7.893-2.3-10.956-3.049c-1.525-0.508,0.253-8.924-11.973-10.969
		c-4.576-0.749-3.049,0.521-6.621-2.543c-1.779-1.525-3.559-2.809-5.859-3.558c-2.288-0.776-0.764-1.017-2.288-2.302
		c-2.556-1.778-8.146,0.777-11.464-1.017l-6.113-2.809c-1.78-1.017-1.031-1.524-3.825-1.017c-1.271,1.793,0.521,0.775-1.526,1.793
		c-1.016,0.508-2.045,0.762-3.062,1.016c-2.543,1.017-2.288,1.793-4.068,3.559c-2.808-0.24-1.284-2.032-6.113-1.766
		c-3.812,0.24-3.571,0-5.872-2.047c-0.241-3.062,0.776-7.639-1.526-9.163c-2.033-1.537-5.59-1.537-8.146-2.554
		c-0.508-3.814,1.271-9.432,1.017-9.939c-0.509-0.508-5.846-2.288-6.113-1.017c0,0.253-2.033,5.35-4.576,5.604
		c-4.079,0.508-4.588-1.017-6.366-4.08c-1.017-1.766-2.047-2.543-2.047-5.084c0-2.301,0-4.588,0-6.875
		c0-3.317,0.523-3.064,2.288-4.602c4.841-4.32,5.619,0.775,10.701-0.241l0.508-2.047c2.047-0.253,5.605-0.508,7.384-0.253
		c4.095,0.509,3.827,3.316,5.111,6.633c0.508,1.259,1.017,1.259,1.525,2.544c0.508,1.524,0.241,1.524,1.524,2.032
		c5.35,2.542,3.827-4.066,2.542-6.621c-0.75-1.526-2.033-4.079-2.287-6.114c0-2.541,2.046-3.825,3.572-4.842l4.574-3.825
		c2.3-2.288,2.047-2.288,3.063-5.084c0.762-2.541,3.062-10.447,5.097-11.717l5.351-2.811c0.749-1.271,0.239-2.796,0.239-4.333
		c1.286-0.749,2.81-2.796,4.335-3.305c1.524-0.508,1.792,0,2.809-0.763c1.271-1.016,0.51-1.524,2.542-1.27
		c-0.749,1.27-1.526,1.524-1.016,3.811c4.333,1.526,5.095-2.542,8.909-3.305c2.045-0.506,3.062-1.029,4.092-2.286
		c2.033-1.792,1.765-1.539,1.765-4.843c-2.541-0.268-4.065,1.271-6.606-0.268c-1.527-0.749-4.335-1.524-4.335-3.302
		c0-1.78,1.27-1.78,0.508-3.572c-1.016-2.542-4.588-1.018-6.635,0c-1.017,0.507-1.78,1.538-3.049,1.792
		c0.508-2.542,1.524-2.302,3.825-3.318c3.56-1.27,2.033-1.017,5.592-0.508c1.029,3.318,3.076,3.318,6.127,2.809
		c0.508-1.284,0.508-2.554,0.253-3.825c6.368,0,5.337-1.78,6.368-2.809l2.033-0.241c-0.253,3.049-4.829,8.654-4.32,11.209
		c3.304,0.508,5.845-0.268,8.909,1.257c2.033,1.016,5.352,3.827,7.131,0.775c1.017-2.554-1.017-3.063-1.779-4.333
		c-1.031-2.035,0.253-2.541-1.792-4.843c-2.288,0-2.288,0.255-3.812-0.762c0-1.779,0.508-1.271,0.761-2.796c0-0.776,0-2.81,0-3.827
		c0-6.367-0.508-4.333-0.761-6.876c-1.792-0.774-1.792,0-2.288-2.033l-1.792-3.316c-5.86,0-2.543,0.255-6.368-3.064
		c-1.272-1.002-2.542-1.27-1.78-3.304c0.763-3.317-2.555-5.605-2.794-8.668c-2.302-1.525-1.794-5.86-5.607-5.083
		c-0.761,1.016-1.028,2.288-1.27,3.811c-0.268,1.779-0.51,1.779-1.539,2.797c-2.556,2.554-2.047,0-4.843-0.242
		c-0.762,0-1.002,0-1.778,0.242c1.016-2.288,2.3-2.797,1.525-6.876c-0.255-1.271-1.017-2.288-2.033-2.796
		c-5.097-2.796-3.318-5.096-7.652-5.096c-9.417,0-8.642-1.78-8.642,4.841c0,5.606,0.75,6.623-1.03,8.668
		c-3.064,3.56,5.604,7.385,0.763,14.261c-0.763,1.016-1.526,1.27-3.049,1.524c-0.269,2.3-1.285,3.827-0.51,6.876
		c0.763,2.556,2.288,3.049,0,5.096c-1.284,0-3.317-1.271-4.08-2.287c-0.253-0.509-0.521-0.509-0.521-1.284
		c-0.496-1.27,0-6.101-0.241-7.893c-2.809-2.287-4.335-0.763-6.368-2.033c-6.368-3.825-6.127-3.051-10.956-5.352
		c-2.047-1.284-2.047-2.809-2.554-5.604l-2.034-0.509c-2.541-4.841,1.524-7.905,2.809-11.972c0.763-2.033,1.526-1.792,3.051-2.541
		c2.809-1.284,0-2.3,5.097-5.86c3.063-2.554,3.571-1.524,4.32-6.368c-0.24,1.017,0.508,1.78-0.24,3.052
		c-0.776,1.524-1.284,1.016-0.776,3.825c3.063,2.032,3.317,1.016,6.888,0.749l0.764-1.524c2.3,1.016,2.796,2.047,5.082,0.776
		c0.269-2.809-3.558-6.634-4.841-7.383c0.521-5.111,0.521-3.318,1.284-4.843c0.776-1.792-0.267-0.776,1.271-2.047
		c0.521-0.508,1.029-0.763,1.524-1.525c1.538-2.555,0.521-2.288,0.253-4.842c-0.253-2.555,0.508-4.08,0.508-5.859
		c-2.286-1.271-5.082-2.288-8.4-0.763c-0.253,4.335,1.016,2.034-1.27,5.351c-1.539,1.792,0,3.558-2.288,4.334
		c-0.268-0.509-0.268-0.268-0.268-1.017c-0.508-1.792,0.508-3.572,0.508-5.35l-0.749-0.268c-0.267,0-0.775,0.268-0.775,0.268
		c-0.254-1.284,0-1.284-1.017-1.793c-1.257,0.776-0.763,1.525-2.034,2.301l-1.017-2.034c-0.508-1.029-0.508-0.776-1.016-1.284
		c0.24-2.541,0.508-1.779-0.268-4.574l-1.016-2.81c-0.508-1.017-3.049-1.525-4.333-0.762c-0.243,0.253-0.243,1.271-0.51,1.524
		c-0.75,1.03-0.507,0.254-1.017,1.03l-0.761,1.525c-1.78,6.608,1.271,5.591,1.778,7.383h-1.778
		c-4.321-4.588-4.588,2.287-6.115,5.083l-2.3,2.301c-3.558,0.254-3.29,0.508-5.337-1.525c1.779-1.525,1.016-0.509,3.827-1.017
		l1.016-3.317v-0.255c0.494-1.538,1.778-0.508,1.525-5.351c-1.525-0.508-3.305-0.508-3.305-2.555c-0.267-1.524-0.267-4.575,0-6.1
		c0.509-1.284,3.558-1.284,1.78-5.618c-6.382-0.749-5.604,6.381-7.637,9.952c-4.082-3.571-7.907-8.414-14.275-5.35
		c-1.016,0.508-2.033,2.033-2.794,2.796c-0.777,1.016-1.793,2.046-2.302,3.304c-0.764,1.538-2.286,6.634-2.286,8.16
		c3.57,0.761,2.794,0.253,4.827-1.526c0.522-0.267,1.03-0.508,1.539-0.775c1.271,1.284,0.763,1.792,1.779,2.554
		c2.033,1.272,2.301-0.253,4.588-0.253c-1.524,1.778-0.763,0.761-3.063,1.525c-1.017,0.253-1.766,1.016-2.542,1.792
		c-0.508,3.812,1.792,2.033,3.825,3.558c0.508,0.762,0.749,1.525,2.033,1.779c2.034,0.763,0-0.508,2.542-0.763
		c1.284,0.255,2.3,2.542,1.792,4.08c-1.017-0.521-1.284-1.538-1.525-2.046c-3.064-0.241-4.094,0.508-6.635,1.017l0.267-2.796
		c-8.923-4.08-7.143-1.271-12.495-0.255c-4.574,1.018-5.35-1.792-9.925,6.367c-1.524,0.268-2.809,0-4.333,0.268
		c-1.78,0.496-1.78,1.018-3.049,1.257c-0.787,0.302-1.422,0.428-1.97,0.51c27.161-53.029,82.356-89.318,146.025-89.318
		c35.614,0,68.568,11.356,95.454,30.638c-0.901-0.082-1.658,0.464-2.873,1.373v2.301c0.509,0.508,0.509,0.508,1.524,0.508v2.288
		c1.017,0.508,4.588,4.08,5.605,4.842c1.016,1.017,1.016,1.271,1.779,2.287c1.017,0.763,1.017,0.763,1.777,1.792
		c1.539,1.526,1.794,2.287,3.065,2.287c1.778,0,1.27-0.521,1.27-4.08c-0.177-2.001-0.259-3.469-0.838-4.713
		c17.282,14.843,31.438,33.223,41.341,54.021c-1.865-0.271-1.169,0.238-2.083,1.391c-1.271-2.3-3.051-3.572-4.32-5.617
		c-3.586-5.592-3.319-3.051-4.589-5.351l-1.78-3.305c-1.283-1.779-1.283-0.762-3.063-1.779c-1.283-0.508-1.016-1.792-3.316-1.525
		c-2.288,0.241-1.271,1.271-2.542,2.542c-1.029-1.271-0.509-1.525-2.046-1.525c-1.526,0-4.831,2.033-4.575,5.351
		c0.254,3.557,2.032-1.017-0.256,10.433c-1.017,5.86-5.35,9.177-7.382,11.973c-0.764,1.271-1.031,3.827-0.764,5.35
		c0.764,0.763,1.779,4.082,1.779,5.352c0,1.779-0.522,1.539,0.509,3.063c0.508,0.749,0.764,1.271,1.524,2.033
		c2.555,0.255,4.333-1.016,6.113-0.762l0.255,2.288l1.792,0.507l-0.268,3.572c-0.508-1.778-1.779-4.589-4.32-3.062
		c-1.284,0.775-0.776,2.809-0.776,5.604c0,7.129,0.521,2.555,1.017,5.604c-4.067,2.033-1.524-1.016-7.384,6.876
		c-4.32,6.127-2.034,5.858-8.401,6.367l-0.508,1.284c0,0.242,0,0.242,0,0.242c-3.305-0.51-4.333,0.776-3.827,3.825
		c1.78,1.284,2.811,0.775,4.081,3.318c0.762,1.017,1.778,4.066,1.778,5.858c-0.253,4.843-7.638,2.288-11.971,2.288
		c-0.764,1.27-2.034,1.78-2.542,3.063c-0.508,1.525,0.508,2.795,0.508,4.842c0,2.035,0,4.067,0,5.86
		c-0.254,2.032-1.016,3.304,0.509,4.828c0.508,0.522,0.762,0.522,2.032,0.763c1.539,0.509,0.777-0.24,1.539,1.284
		c1.016,1.524,1.016,2.797,0,4.321c-2.3,3.063-3.825,1.27-5.605,6.381c-1.539,4.32-0.254,5.082-3.825,7.625
		c-4.079,3.062-8.399,8.668-10.194,13.509c-1.27,3.56-0.252,7.893-0.252,11.212c-1.78,1.27-1.78,3.316-2.035,5.857
		c-0.507,4.335-0.253,3.812,1.794,6.101c2.54,3.063,3.049,2.047,3.812,4.335c0.762,2.809,1.779,2.809,4.079,4.333
		c7.383,5.097,7.383,1.525,11.972,0.255c3.559-0.764,0.255,1.271,6.367-1.525c8.655-3.812,5.859-1.271,8.655-0.521
		c1.018,0.268,2.81,0,4.081,0c0,3.076-3.827,5.352-1.793,9.952c1.029,1.779,1.525,2.287,1.525,5.084
		c0.268,5.858-3.56,6.366-5.592,13.509c-0.508,1.78-0.776,3.052-1.018,5.353l-0.52,4.32c0.084,0.926,0.419,1.392,0.866,1.594
		c-28.734,24.829-66.185,39.849-107.146,39.849C191.227,361.338,183.074,360.715,175.106,359.525z"/>
	<path d="M119.399,67.206c1.539-0.762,2.047-2.033,1.539-3.812c-0.522-1.793-2.047-2.542-3.825-1.526
		C111.761,64.664,117.366,67.728,119.399,67.206z"/>
	<path d="M105.393,77.145c-0.253-0.762,0.241-1.017-0.762-1.271c-1.271-0.508-2.796,0.509-3.318,1.018
		c-0.253,0.508-0.253,2.554-0.761,3.572c-4.335-1.793-4.588-4.08-7.893-2.047c-2.033,1.538-4.843,4.08-5.859,6.113
		c0.749,2.809,6.876,5.351,10.434,3.572c4.335-2.047,1.525-2.288,4.08-3.064c3.063-1.016,1.271-1.27,4.321-2.541l0.777-0.255
		C107.428,80.971,105.634,78.416,105.393,77.145z"/>
	<path d="M111.506,79.954c2.288,2.034,4.831,0.241,6.368-0.776l0.763,0.509c0,0.267,0.253,0.267,0.253,0.267
		l0.763,0.509c1.792,1.017,6.621-2.301,3.827-5.097c-1.286-1.271-1.018,0-2.543-0.762c-0.522-0.268-1.284-4.842-5.35-2.301
		c-0.777,0.508-2.047,1.017-2.81,1.525c-1.017,0.268-3.317-0.241-3.825,0.508c-0.749,0.776-0.508,2.809,0,3.572
		C109.461,78.416,110.745,79.445,111.506,79.954z"/>
	<path d="M285.74,172.415c-0.267,1.271-0.267,2.543,0,3.812c4.589,0.522,5.605-1.002,7.64-3.304
		c0.762-1.016,0.506-0.508,0.506-2.3c0.256-2.288,0-5.352-1.269-7.385h-4.335c-0.507,1.017-0.507,1.794-1.271,2.543
		C284.203,168.843,286.248,168.335,285.74,172.415z"/>
	<path d="M291.854,159.172c1.017,1.271,1.271,1.778,2.032,3.304c0.764,1.017,0.764,0.761,1.271,1.27
		c0.776,1.018,0.256,1.018,0.509,2.302c0.508,1.27,1.779,1.525,1.286,3.304c-0.778,1.537-1.286,1.537-1.795,3.825
		c-0.252,1.525-0.252,3.572-0.252,4.588c-0.256,1.779-1.272,0.763-0.764,4.334c3.062,0.507,11.719-4.602,12.48-6.127
		c1.525-2.542-0.509-4.32-1.017-4.843c-2.047-3.049-3.827-4.576-4.333-6.876c-0.51-3.558-2.034-1.27-1.526-6.113
		c0-1.002,0-1.524-0.508-2.541c-0.509-0.763-0.764-0.763-1.525-1.271c-0.268,0-0.268,0-0.268-0.268
		c0.268-5.337-3.049-3.812-5.082-3.049c-1.271,0.253-1.793,0-3.318,0.253c-0.253,2.556-0.253,2.796,1.016,4.335
		C290.824,156.872,291.092,157.889,291.854,159.172z"/>
	<path d="M124.242,67.968c-1.78,0.268-4.588,0-3.063,3.063c0.776,1.525,2.809,1.78,4.08,2.796
		c0,2.046-0.255,4.334,1.271,5.859c1.525,0.508,9.177-0.749,11.464-1.271c4.079-0.508,8.414,0.522,9.43-3.812
		c1.016-4.08-3.063-5.86-7.384-4.08c-1.525,0.762-2.541,1.779-4.333,2.288c-1.272,0.508-2.556,0.508-3.827-0.255
		c-1.27-1.017-0.508,0.255-1.017-1.017c-0.508-3.572,1.284-2.288-5.35-3.304c0.762-1.03,2.3-1.792,3.049-2.554
		c0-1.018-2.033-4.08-2.541-5.098c-3.318-0.508-3.318-0.253-3.051,2.811C122.97,65.427,123.48,66.697,124.242,67.968z"/>
	<path d="M151.491,257.237l-7.385-4.079c-3.558-1.271-7.651-3.317-11.717-2.287c-1.78,0.508-1.78-0.255-2.035,1.271
		c-1.017,4.066,1.017,2.809,3.827,2.809c2.274,0,4.333,0.75,6.099,1.524c2.811,1.525,2.811,1.272,4.603,2.797
		c1.525,1.537,1.257,0.508,2.796,1.03c1.525,0.749,0.761,1.017,3.303,0.749C151.249,259.779,151.759,259.017,151.491,257.237z"/>
	<path d="M157.364,258.763c-2.301,0-3.064-0.254-4.348,1.539c-0.749,0.749-1.767,2.795-1.767,4.066
		c1.526,0,2.288-0.255,3.559,0.255c1.271,0.507,1.017,0.761,3.049,0.507c2.047-0.254,4.588-1.017,6.127-1.778
		C164.493,259.524,160.921,258.509,157.364,258.763z"/>
	<path d="M276.056,125.543c1.78-2.542-2.541-7.652-3.826-8.401c-2.033-1.525-2.541,0.508-4.827,0.749
		c-1.78,0-4.335,0-6.368,0c-1.284-1.766-0.522-1.525-2.81-2.033c-1.018,0.776-1.778,1.284-2.287,2.3
		c-0.255,0.763-0.763,2.033-0.509,3.05c1.271,0,1.018-1.017,2.796,0c-0.254,0.777-0.762,0.255-1.018,1.283
		c-0.253,0.51,0,1.527,0.256,2.035c0.762,1.78,0.762,0.253,1.524,3.049c1.779,0.268,0.763,0,1.284,0.509l0.495,1.016
		c0.508,0.508,1.283,0.268,2.554,0.776c1.525,0.508,2.543,1.779,4.843,1.018C270.706,129.608,274.277,127.575,276.056,125.543z"/>
	<path d="M175.943,110.507c-1.017-0.749-1.525-2.033-4.828-4.066c-1.78-1.285-0.522-0.509-2.798-1.285l-0.268-1.779
		c0.777-0.255,0.777,0,1.527-0.508c0-7.893-1.766-6.622-2.796-7.384c-0.508-0.508-0.763-1.017-1.271-1.271
		c-1.284-1.017-1.284,0-3.063-1.525c-3.062-2.809-0.253-3.063-5.846-3.063c-0.775-0.253-2.553-3.304-3.316-4.841
		c-0.508-1.017-0.268-0.509-0.508-1.271c-0.776-1.017-0.508,0.254-0.776-2.541c-2.796-0.776-6.368-1.526-9.417-0.776
		c-5.352,1.285-7.639,0-9.177,0.776c-3.559,1.524-8.402,8.654-7.893,12.467c1.792,1.03,2.033,0.522,3.049,2.301
		c-0.24,0.762-2.541,2.542-1.257,4.08c1.525,1.525,12.466,0.762,15.277,0.508c3.558-0.254,2.033-0.254,4.333-1.538
		c3.559,5.109,0,5.618,3.317,6.367c0.749,0,2.034,0,2.783,1.285c-1.767,0-4.067-0.268-5.592,0.508
		c-0.776,1.27-1.016,2.301-0.776,4.333c1.539,1.257,2.811,2.034,4.844,0.763c4.078-2.047,2.045-2.047,4.078-2.796
		c0.255,5.337-3.57,4.066-3.57,9.925c-3.812,0-8.909,1.271-7.384,5.604c1.524,2.556,7.892-0.253,8.16-0.253
		c1.778,0.253,3.304,4.842,4.842,5.858c2.796,1.78,8.911,6.368,11.452,3.559c0-1.779-3.051-5.084-4.335-5.351
		c2.047,0,5.364,2.808,7.144,2.808c1.017-1.284,1.272-2.808,1.272-4.588c0-2.287-0.764-2.794-1.78-4.079
		c-2.033-1.767-4.841-3.559-4.08-7.384c3.063,0.776,2.047,4.842,5.096,5.35c1.017,0.268,2.301,0,3.319,0
		c1.778-1.524,3.811-6.112,3.302-8.908C177.99,111.282,176.453,111.015,175.943,110.507z"/>
	<path d="M127.305,82.75c-3.063-1.538-4.602-1.538-7.907-0.254c-1.778,0.762-2.033,7.129-1.27,9.177
		c5.604,0.508,2.286-1.031,4.333-2.81c0.763-0.508,1.78-0.508,2.542-1.017c0.763-0.762,0.763-1.285,1.271-2.034
		C127.038,84.784,127.546,84.529,127.305,82.75z"/>
	<path d="M109.728,87.846c-0.776,2.034,0.241,1.017,0,2.795c-2.047,0-1.794-1.017-3.584,0.522
		c-0.243,1.766,0,3.304,1.537,3.812c0.763,0.508,1.031,0.253,1.78,1.016c0.775,0.508,0.775,0.762,1.792,1.538
		c2.033-0.508,4.334-2.046,4.841-3.826c0.243-1.284-0.267-2.809-0.267-4.08c0-2.046,1.03-1.779,0.777-3.571
		C115.827,83.258,111.506,83.767,109.728,87.846z"/>
</g>
</svg>
